<mxfile host="app.diagrams.net" modified="2024-03-23T12:47:18.147Z" agent="Mozilla/5.0 (Windows NT 10.0; Win64; x64) AppleWebKit/537.36 (KHTML, like Gecko) Chrome/123.0.0.0 Safari/537.36" etag="3sP9eYfMN5pxnUfrvzvF" version="24.0.8" type="device">
  <diagram name="Page-1" id="EiJlxtBvKbc5AjR-hJhH">
    <mxGraphModel dx="1434" dy="1872" grid="1" gridSize="10" guides="1" tooltips="1" connect="1" arrows="1" fold="1" page="1" pageScale="1" pageWidth="850" pageHeight="1100" math="0" shadow="0">
      <root>
        <mxCell id="0" />
        <mxCell id="1" parent="0" />
        <mxCell id="eS7r_KudxVqqN3wLMcyE-1" value="USER" style="rounded=0;whiteSpace=wrap;html=1;" vertex="1" parent="1">
          <mxGeometry x="190" y="160" width="120" height="60" as="geometry" />
        </mxCell>
        <mxCell id="eS7r_KudxVqqN3wLMcyE-5" value="ID" style="ellipse;whiteSpace=wrap;html=1;" vertex="1" parent="1">
          <mxGeometry x="40" y="20" width="120" height="50" as="geometry" />
        </mxCell>
        <mxCell id="eS7r_KudxVqqN3wLMcyE-6" value="" style="endArrow=none;html=1;rounded=0;entryX=0;entryY=0;entryDx=0;entryDy=0;" edge="1" parent="1" source="eS7r_KudxVqqN3wLMcyE-5" target="eS7r_KudxVqqN3wLMcyE-1">
          <mxGeometry width="50" height="50" relative="1" as="geometry">
            <mxPoint x="120" y="110" as="sourcePoint" />
            <mxPoint x="170" y="60" as="targetPoint" />
          </mxGeometry>
        </mxCell>
        <mxCell id="eS7r_KudxVqqN3wLMcyE-7" value="NAME" style="ellipse;whiteSpace=wrap;html=1;" vertex="1" parent="1">
          <mxGeometry x="160" y="10" width="120" height="50" as="geometry" />
        </mxCell>
        <mxCell id="eS7r_KudxVqqN3wLMcyE-8" value="" style="endArrow=none;html=1;rounded=0;entryX=0;entryY=0;entryDx=0;entryDy=0;" edge="1" source="eS7r_KudxVqqN3wLMcyE-7" parent="1" target="eS7r_KudxVqqN3wLMcyE-1">
          <mxGeometry width="50" height="50" relative="1" as="geometry">
            <mxPoint x="270" y="70" as="sourcePoint" />
            <mxPoint x="200" y="140" as="targetPoint" />
          </mxGeometry>
        </mxCell>
        <mxCell id="eS7r_KudxVqqN3wLMcyE-9" value="EMAILID\USERNAME" style="ellipse;whiteSpace=wrap;html=1;" vertex="1" parent="1">
          <mxGeometry x="280" y="10" width="140" height="50" as="geometry" />
        </mxCell>
        <mxCell id="eS7r_KudxVqqN3wLMcyE-10" value="" style="endArrow=none;html=1;rounded=0;entryX=0;entryY=0;entryDx=0;entryDy=0;" edge="1" source="eS7r_KudxVqqN3wLMcyE-9" parent="1" target="eS7r_KudxVqqN3wLMcyE-1">
          <mxGeometry width="50" height="50" relative="1" as="geometry">
            <mxPoint x="360" y="100" as="sourcePoint" />
            <mxPoint x="200" y="150" as="targetPoint" />
          </mxGeometry>
        </mxCell>
        <mxCell id="eS7r_KudxVqqN3wLMcyE-11" value="PASSWORD" style="ellipse;whiteSpace=wrap;html=1;" vertex="1" parent="1">
          <mxGeometry x="340" y="50" width="145" height="40" as="geometry" />
        </mxCell>
        <mxCell id="eS7r_KudxVqqN3wLMcyE-12" value="" style="endArrow=none;html=1;rounded=0;" edge="1" parent="1">
          <mxGeometry width="50" height="50" relative="1" as="geometry">
            <mxPoint x="190" y="160" as="sourcePoint" />
            <mxPoint x="350" y="80" as="targetPoint" />
          </mxGeometry>
        </mxCell>
        <mxCell id="eS7r_KudxVqqN3wLMcyE-13" value="ABOUT" style="ellipse;whiteSpace=wrap;html=1;" vertex="1" parent="1">
          <mxGeometry x="353" y="90" width="145" height="40" as="geometry" />
        </mxCell>
        <mxCell id="eS7r_KudxVqqN3wLMcyE-14" value="" style="endArrow=none;html=1;rounded=0;entryX=0;entryY=0.5;entryDx=0;entryDy=0;" edge="1" parent="1" target="eS7r_KudxVqqN3wLMcyE-13">
          <mxGeometry width="50" height="50" relative="1" as="geometry">
            <mxPoint x="190" y="160" as="sourcePoint" />
            <mxPoint x="360" y="90" as="targetPoint" />
          </mxGeometry>
        </mxCell>
        <mxCell id="eS7r_KudxVqqN3wLMcyE-15" value="POST" style="rounded=0;whiteSpace=wrap;html=1;" vertex="1" parent="1">
          <mxGeometry x="570" y="270" width="120" height="60" as="geometry" />
        </mxCell>
        <mxCell id="eS7r_KudxVqqN3wLMcyE-16" value="POST_ID" style="ellipse;whiteSpace=wrap;html=1;" vertex="1" parent="1">
          <mxGeometry x="425" y="130" width="120" height="50" as="geometry" />
        </mxCell>
        <mxCell id="eS7r_KudxVqqN3wLMcyE-17" value="" style="endArrow=none;html=1;rounded=0;entryX=0;entryY=0;entryDx=0;entryDy=0;" edge="1" source="eS7r_KudxVqqN3wLMcyE-16" parent="1">
          <mxGeometry width="50" height="50" relative="1" as="geometry">
            <mxPoint x="505" y="220" as="sourcePoint" />
            <mxPoint x="575" y="270" as="targetPoint" />
          </mxGeometry>
        </mxCell>
        <mxCell id="eS7r_KudxVqqN3wLMcyE-18" value="TITLE" style="ellipse;whiteSpace=wrap;html=1;" vertex="1" parent="1">
          <mxGeometry x="540" y="120" width="120" height="50" as="geometry" />
        </mxCell>
        <mxCell id="eS7r_KudxVqqN3wLMcyE-19" value="" style="endArrow=none;html=1;rounded=0;entryX=0.045;entryY=-0.007;entryDx=0;entryDy=0;entryPerimeter=0;" edge="1" source="eS7r_KudxVqqN3wLMcyE-18" parent="1" target="eS7r_KudxVqqN3wLMcyE-15">
          <mxGeometry width="50" height="50" relative="1" as="geometry">
            <mxPoint x="620" y="210" as="sourcePoint" />
            <mxPoint x="580" y="260" as="targetPoint" />
          </mxGeometry>
        </mxCell>
        <mxCell id="eS7r_KudxVqqN3wLMcyE-20" value="CONTENT" style="ellipse;whiteSpace=wrap;html=1;" vertex="1" parent="1">
          <mxGeometry x="660" y="115" width="120" height="50" as="geometry" />
        </mxCell>
        <mxCell id="eS7r_KudxVqqN3wLMcyE-21" value="" style="endArrow=none;html=1;rounded=0;entryX=0.072;entryY=-0.027;entryDx=0;entryDy=0;entryPerimeter=0;" edge="1" source="eS7r_KudxVqqN3wLMcyE-20" parent="1" target="eS7r_KudxVqqN3wLMcyE-15">
          <mxGeometry width="50" height="50" relative="1" as="geometry">
            <mxPoint x="740" y="205" as="sourcePoint" />
            <mxPoint x="570" y="265" as="targetPoint" />
          </mxGeometry>
        </mxCell>
        <mxCell id="eS7r_KudxVqqN3wLMcyE-22" value="IMAGE" style="ellipse;whiteSpace=wrap;html=1;" vertex="1" parent="1">
          <mxGeometry x="681" y="160" width="120" height="50" as="geometry" />
        </mxCell>
        <mxCell id="eS7r_KudxVqqN3wLMcyE-23" value="" style="endArrow=none;html=1;rounded=0;" edge="1" source="eS7r_KudxVqqN3wLMcyE-22" parent="1">
          <mxGeometry width="50" height="50" relative="1" as="geometry">
            <mxPoint x="761" y="250" as="sourcePoint" />
            <mxPoint x="570" y="270" as="targetPoint" />
          </mxGeometry>
        </mxCell>
        <mxCell id="eS7r_KudxVqqN3wLMcyE-24" value="USER_ID" style="ellipse;whiteSpace=wrap;html=1;fillColor=#ffe6cc;strokeColor=#d79b00;" vertex="1" parent="1">
          <mxGeometry x="715.5" y="210" width="120" height="50" as="geometry" />
        </mxCell>
        <mxCell id="eS7r_KudxVqqN3wLMcyE-25" value="" style="endArrow=none;html=1;rounded=0;" edge="1" source="eS7r_KudxVqqN3wLMcyE-24" parent="1" target="eS7r_KudxVqqN3wLMcyE-15">
          <mxGeometry width="50" height="50" relative="1" as="geometry">
            <mxPoint x="795.5" y="300" as="sourcePoint" />
            <mxPoint x="604.5" y="320" as="targetPoint" />
          </mxGeometry>
        </mxCell>
        <mxCell id="eS7r_KudxVqqN3wLMcyE-26" value="Can Create" style="rhombus;whiteSpace=wrap;html=1;" vertex="1" parent="1">
          <mxGeometry x="330" y="280" width="120" height="100" as="geometry" />
        </mxCell>
        <mxCell id="eS7r_KudxVqqN3wLMcyE-27" value="" style="endArrow=none;html=1;rounded=0;exitX=0;exitY=0.5;exitDx=0;exitDy=0;" edge="1" parent="1" source="eS7r_KudxVqqN3wLMcyE-26">
          <mxGeometry width="50" height="50" relative="1" as="geometry">
            <mxPoint x="210" y="270" as="sourcePoint" />
            <mxPoint x="260" y="220" as="targetPoint" />
          </mxGeometry>
        </mxCell>
        <mxCell id="eS7r_KudxVqqN3wLMcyE-28" value="" style="endArrow=none;html=1;rounded=0;entryX=0;entryY=0.75;entryDx=0;entryDy=0;" edge="1" parent="1" target="eS7r_KudxVqqN3wLMcyE-15">
          <mxGeometry width="50" height="50" relative="1" as="geometry">
            <mxPoint x="448" y="330" as="sourcePoint" />
            <mxPoint x="498" y="280" as="targetPoint" />
          </mxGeometry>
        </mxCell>
        <mxCell id="eS7r_KudxVqqN3wLMcyE-29" value="1" style="text;html=1;align=center;verticalAlign=middle;resizable=0;points=[];autosize=1;strokeColor=none;fillColor=none;" vertex="1" parent="1">
          <mxGeometry x="305" y="248" width="30" height="30" as="geometry" />
        </mxCell>
        <mxCell id="eS7r_KudxVqqN3wLMcyE-30" value="N" style="text;html=1;align=center;verticalAlign=middle;resizable=0;points=[];autosize=1;strokeColor=none;fillColor=none;" vertex="1" parent="1">
          <mxGeometry x="505" y="288" width="30" height="30" as="geometry" />
        </mxCell>
        <mxCell id="eS7r_KudxVqqN3wLMcyE-31" value="COMMENT" style="rounded=1;whiteSpace=wrap;html=1;" vertex="1" parent="1">
          <mxGeometry x="561" y="560" width="120" height="60" as="geometry" />
        </mxCell>
        <mxCell id="eS7r_KudxVqqN3wLMcyE-32" value="POST_ID" style="ellipse;whiteSpace=wrap;html=1;" vertex="1" parent="1">
          <mxGeometry x="420" y="420" width="120" height="50" as="geometry" />
        </mxCell>
        <mxCell id="eS7r_KudxVqqN3wLMcyE-33" value="" style="endArrow=none;html=1;rounded=0;entryX=0;entryY=0;entryDx=0;entryDy=0;" edge="1" source="eS7r_KudxVqqN3wLMcyE-32" parent="1">
          <mxGeometry width="50" height="50" relative="1" as="geometry">
            <mxPoint x="500" y="510" as="sourcePoint" />
            <mxPoint x="570" y="560" as="targetPoint" />
          </mxGeometry>
        </mxCell>
        <mxCell id="eS7r_KudxVqqN3wLMcyE-34" value="USER_ID" style="ellipse;whiteSpace=wrap;html=1;" vertex="1" parent="1">
          <mxGeometry x="540" y="420" width="120" height="50" as="geometry" />
        </mxCell>
        <mxCell id="eS7r_KudxVqqN3wLMcyE-35" value="" style="endArrow=none;html=1;rounded=0;" edge="1" source="eS7r_KudxVqqN3wLMcyE-34" parent="1">
          <mxGeometry width="50" height="50" relative="1" as="geometry">
            <mxPoint x="620" y="500" as="sourcePoint" />
            <mxPoint x="570" y="560" as="targetPoint" />
          </mxGeometry>
        </mxCell>
        <mxCell id="eS7r_KudxVqqN3wLMcyE-39" value="CONTENT" style="ellipse;whiteSpace=wrap;html=1;" vertex="1" parent="1">
          <mxGeometry x="666" y="420" width="120" height="60" as="geometry" />
        </mxCell>
        <mxCell id="eS7r_KudxVqqN3wLMcyE-40" value="" style="endArrow=none;html=1;rounded=0;" edge="1" source="eS7r_KudxVqqN3wLMcyE-39" parent="1" target="eS7r_KudxVqqN3wLMcyE-31">
          <mxGeometry width="50" height="50" relative="1" as="geometry">
            <mxPoint x="746" y="520" as="sourcePoint" />
            <mxPoint x="816" y="570" as="targetPoint" />
          </mxGeometry>
        </mxCell>
        <mxCell id="eS7r_KudxVqqN3wLMcyE-41" value="COMMENT_ID" style="ellipse;whiteSpace=wrap;html=1;" vertex="1" parent="1">
          <mxGeometry x="730" y="480" width="120" height="60" as="geometry" />
        </mxCell>
        <mxCell id="eS7r_KudxVqqN3wLMcyE-42" value="" style="endArrow=none;html=1;rounded=0;entryX=1;entryY=0.5;entryDx=0;entryDy=0;exitX=0;exitY=0.5;exitDx=0;exitDy=0;" edge="1" source="eS7r_KudxVqqN3wLMcyE-49" parent="1" target="eS7r_KudxVqqN3wLMcyE-31">
          <mxGeometry width="50" height="50" relative="1" as="geometry">
            <mxPoint x="813.1313987155667" y="587.9977950620835" as="sourcePoint" />
            <mxPoint x="737.87" y="643.19" as="targetPoint" />
          </mxGeometry>
        </mxCell>
        <mxCell id="eS7r_KudxVqqN3wLMcyE-43" value="Add" style="rhombus;whiteSpace=wrap;html=1;" vertex="1" parent="1">
          <mxGeometry x="190" y="550" width="80" height="80" as="geometry" />
        </mxCell>
        <mxCell id="eS7r_KudxVqqN3wLMcyE-44" value="" style="endArrow=none;html=1;rounded=0;entryX=0.182;entryY=1.04;entryDx=0;entryDy=0;entryPerimeter=0;" edge="1" parent="1">
          <mxGeometry width="50" height="50" relative="1" as="geometry">
            <mxPoint x="228.13696391538772" y="550.4830360846121" as="sourcePoint" />
            <mxPoint x="211.85999999999993" y="220.99999999999997" as="targetPoint" />
          </mxGeometry>
        </mxCell>
        <mxCell id="eS7r_KudxVqqN3wLMcyE-46" value="" style="endArrow=none;html=1;rounded=0;entryX=0.01;entryY=0.613;entryDx=0;entryDy=0;entryPerimeter=0;" edge="1" parent="1" target="eS7r_KudxVqqN3wLMcyE-31">
          <mxGeometry width="50" height="50" relative="1" as="geometry">
            <mxPoint x="269.9969639153877" y="590.0030360846121" as="sourcePoint" />
            <mxPoint x="561" y="605" as="targetPoint" />
          </mxGeometry>
        </mxCell>
        <mxCell id="eS7r_KudxVqqN3wLMcyE-47" value="1" style="text;html=1;align=center;verticalAlign=middle;resizable=0;points=[];autosize=1;strokeColor=none;fillColor=none;" vertex="1" parent="1">
          <mxGeometry x="235" y="408" width="30" height="30" as="geometry" />
        </mxCell>
        <mxCell id="eS7r_KudxVqqN3wLMcyE-48" value="N" style="text;html=1;align=center;verticalAlign=middle;resizable=0;points=[];autosize=1;strokeColor=none;fillColor=none;" vertex="1" parent="1">
          <mxGeometry x="445" y="558" width="30" height="30" as="geometry" />
        </mxCell>
        <mxCell id="eS7r_KudxVqqN3wLMcyE-49" value="HAVE" style="rhombus;whiteSpace=wrap;html=1;" vertex="1" parent="1">
          <mxGeometry x="1010" y="480" width="100" height="100" as="geometry" />
        </mxCell>
        <mxCell id="eS7r_KudxVqqN3wLMcyE-51" value="" style="endArrow=none;html=1;rounded=0;entryX=1;entryY=0.5;entryDx=0;entryDy=0;exitX=0.5;exitY=0;exitDx=0;exitDy=0;" edge="1" parent="1" source="eS7r_KudxVqqN3wLMcyE-49">
          <mxGeometry width="50" height="50" relative="1" as="geometry">
            <mxPoint x="1019" y="248" as="sourcePoint" />
            <mxPoint x="690" y="308" as="targetPoint" />
          </mxGeometry>
        </mxCell>
        <mxCell id="eS7r_KudxVqqN3wLMcyE-52" value="1" style="text;html=1;align=center;verticalAlign=middle;resizable=0;points=[];autosize=1;strokeColor=none;fillColor=none;" vertex="1" parent="1">
          <mxGeometry x="935" y="378" width="30" height="30" as="geometry" />
        </mxCell>
        <mxCell id="eS7r_KudxVqqN3wLMcyE-53" value="N" style="text;html=1;align=center;verticalAlign=middle;resizable=0;points=[];autosize=1;strokeColor=none;fillColor=none;" vertex="1" parent="1">
          <mxGeometry x="835" y="588" width="30" height="30" as="geometry" />
        </mxCell>
        <mxCell id="eS7r_KudxVqqN3wLMcyE-54" value="CREATE_DATE" style="ellipse;whiteSpace=wrap;html=1;" vertex="1" parent="1">
          <mxGeometry x="835" y="260" width="120" height="50" as="geometry" />
        </mxCell>
        <mxCell id="eS7r_KudxVqqN3wLMcyE-55" value="" style="endArrow=none;html=1;rounded=0;exitX=1;exitY=0.5;exitDx=0;exitDy=0;entryX=0;entryY=0.5;entryDx=0;entryDy=0;" edge="1" parent="1" source="eS7r_KudxVqqN3wLMcyE-15" target="eS7r_KudxVqqN3wLMcyE-54">
          <mxGeometry width="50" height="50" relative="1" as="geometry">
            <mxPoint x="736" y="325" as="sourcePoint" />
            <mxPoint x="830" y="290" as="targetPoint" />
          </mxGeometry>
        </mxCell>
        <mxCell id="eS7r_KudxVqqN3wLMcyE-56" value="IS_LIVE" style="ellipse;whiteSpace=wrap;html=1;" vertex="1" parent="1">
          <mxGeometry x="365.5" y="180" width="120" height="50" as="geometry" />
        </mxCell>
        <mxCell id="eS7r_KudxVqqN3wLMcyE-58" value="" style="endArrow=none;html=1;rounded=0;exitX=0.766;exitY=0.96;exitDx=0;exitDy=0;exitPerimeter=0;entryX=-0.005;entryY=0.38;entryDx=0;entryDy=0;entryPerimeter=0;" edge="1" parent="1" source="eS7r_KudxVqqN3wLMcyE-56" target="eS7r_KudxVqqN3wLMcyE-15">
          <mxGeometry width="50" height="50" relative="1" as="geometry">
            <mxPoint x="445" y="270" as="sourcePoint" />
            <mxPoint x="560" y="290" as="targetPoint" />
          </mxGeometry>
        </mxCell>
        <mxCell id="eS7r_KudxVqqN3wLMcyE-59" value="CATEGORY" style="rounded=0;whiteSpace=wrap;html=1;" vertex="1" parent="1">
          <mxGeometry x="1070" y="115" width="120" height="60" as="geometry" />
        </mxCell>
        <mxCell id="eS7r_KudxVqqN3wLMcyE-60" value="CATEGORY_ID" style="ellipse;whiteSpace=wrap;html=1;" vertex="1" parent="1">
          <mxGeometry x="930" y="10" width="120" height="50" as="geometry" />
        </mxCell>
        <mxCell id="eS7r_KudxVqqN3wLMcyE-61" value="" style="endArrow=none;html=1;rounded=0;" edge="1" parent="1" source="eS7r_KudxVqqN3wLMcyE-59">
          <mxGeometry width="50" height="50" relative="1" as="geometry">
            <mxPoint x="1110" y="175" as="sourcePoint" />
            <mxPoint x="1020" y="57" as="targetPoint" />
          </mxGeometry>
        </mxCell>
        <mxCell id="eS7r_KudxVqqN3wLMcyE-62" value="CATEGORY_NAME" style="ellipse;whiteSpace=wrap;html=1;" vertex="1" parent="1">
          <mxGeometry x="1080" y="5" width="140" height="45" as="geometry" />
        </mxCell>
        <mxCell id="eS7r_KudxVqqN3wLMcyE-63" value="" style="endArrow=none;html=1;rounded=0;exitX=0.338;exitY=-0.008;exitDx=0;exitDy=0;exitPerimeter=0;" edge="1" parent="1" source="eS7r_KudxVqqN3wLMcyE-59">
          <mxGeometry width="50" height="50" relative="1" as="geometry">
            <mxPoint x="1110" y="110" as="sourcePoint" />
            <mxPoint x="1150" y="50" as="targetPoint" />
          </mxGeometry>
        </mxCell>
        <mxCell id="eS7r_KudxVqqN3wLMcyE-67" value="Contains" style="rhombus;whiteSpace=wrap;html=1;" vertex="1" parent="1">
          <mxGeometry x="1160" y="260" width="80" height="80" as="geometry" />
        </mxCell>
        <mxCell id="eS7r_KudxVqqN3wLMcyE-68" value="" style="endArrow=none;html=1;rounded=0;entryX=0.75;entryY=1;entryDx=0;entryDy=0;" edge="1" parent="1" target="eS7r_KudxVqqN3wLMcyE-59">
          <mxGeometry width="50" height="50" relative="1" as="geometry">
            <mxPoint x="1200" y="260" as="sourcePoint" />
            <mxPoint x="1220" y="200" as="targetPoint" />
          </mxGeometry>
        </mxCell>
        <mxCell id="eS7r_KudxVqqN3wLMcyE-70" value="" style="endArrow=none;html=1;rounded=0;entryX=0;entryY=0.5;entryDx=0;entryDy=0;exitX=1;exitY=0.75;exitDx=0;exitDy=0;" edge="1" parent="1" source="eS7r_KudxVqqN3wLMcyE-15" target="eS7r_KudxVqqN3wLMcyE-67">
          <mxGeometry width="50" height="50" relative="1" as="geometry">
            <mxPoint x="1020" y="360" as="sourcePoint" />
            <mxPoint x="1070" y="310" as="targetPoint" />
          </mxGeometry>
        </mxCell>
        <mxCell id="eS7r_KudxVqqN3wLMcyE-71" value="1" style="text;html=1;align=center;verticalAlign=middle;resizable=0;points=[];autosize=1;strokeColor=none;fillColor=none;" vertex="1" parent="1">
          <mxGeometry x="1225" y="198" width="30" height="30" as="geometry" />
        </mxCell>
        <mxCell id="eS7r_KudxVqqN3wLMcyE-72" value="N" style="text;html=1;align=center;verticalAlign=middle;resizable=0;points=[];autosize=1;strokeColor=none;fillColor=none;" vertex="1" parent="1">
          <mxGeometry x="1035" y="258" width="30" height="30" as="geometry" />
        </mxCell>
        <mxCell id="eS7r_KudxVqqN3wLMcyE-73" value="CATEGORY_ID" style="ellipse;whiteSpace=wrap;html=1;" vertex="1" parent="1">
          <mxGeometry x="845" y="120" width="120" height="80" as="geometry" />
        </mxCell>
        <mxCell id="eS7r_KudxVqqN3wLMcyE-74" value="" style="endArrow=none;html=1;rounded=0;exitX=0.5;exitY=0;exitDx=0;exitDy=0;" edge="1" parent="1" source="eS7r_KudxVqqN3wLMcyE-15">
          <mxGeometry width="50" height="50" relative="1" as="geometry">
            <mxPoint x="795" y="215" as="sourcePoint" />
            <mxPoint x="845" y="165" as="targetPoint" />
          </mxGeometry>
        </mxCell>
        <mxCell id="eS7r_KudxVqqN3wLMcyE-75" value="ROLE" style="rounded=0;whiteSpace=wrap;html=1;" vertex="1" parent="1">
          <mxGeometry x="210" y="-210" width="120" height="60" as="geometry" />
        </mxCell>
        <mxCell id="eS7r_KudxVqqN3wLMcyE-76" value="ROLE_ID" style="ellipse;whiteSpace=wrap;html=1;" vertex="1" parent="1">
          <mxGeometry x="60" y="-410" width="120" height="80" as="geometry" />
        </mxCell>
        <mxCell id="eS7r_KudxVqqN3wLMcyE-77" value="" style="endArrow=none;html=1;rounded=0;exitX=0.5;exitY=0;exitDx=0;exitDy=0;" edge="1" parent="1">
          <mxGeometry width="50" height="50" relative="1" as="geometry">
            <mxPoint x="240" y="-210" as="sourcePoint" />
            <mxPoint x="160" y="-340" as="targetPoint" />
          </mxGeometry>
        </mxCell>
        <mxCell id="eS7r_KudxVqqN3wLMcyE-78" value="ROLE_NAME" style="ellipse;whiteSpace=wrap;html=1;" vertex="1" parent="1">
          <mxGeometry x="250" y="-430" width="120" height="80" as="geometry" />
        </mxCell>
        <mxCell id="eS7r_KudxVqqN3wLMcyE-79" value="" style="endArrow=none;html=1;rounded=0;entryX=0.5;entryY=1;entryDx=0;entryDy=0;" edge="1" parent="1" target="eS7r_KudxVqqN3wLMcyE-78">
          <mxGeometry width="50" height="50" relative="1" as="geometry">
            <mxPoint x="280" y="-210" as="sourcePoint" />
            <mxPoint x="330" y="-260" as="targetPoint" />
          </mxGeometry>
        </mxCell>
        <mxCell id="eS7r_KudxVqqN3wLMcyE-80" value="Can have" style="rhombus;whiteSpace=wrap;html=1;" vertex="1" parent="1">
          <mxGeometry x="425" y="-140" width="80" height="80" as="geometry" />
        </mxCell>
        <mxCell id="eS7r_KudxVqqN3wLMcyE-81" value="" style="endArrow=none;html=1;rounded=0;entryX=1;entryY=1;entryDx=0;entryDy=0;exitX=0;exitY=0.5;exitDx=0;exitDy=0;" edge="1" parent="1" source="eS7r_KudxVqqN3wLMcyE-80" target="eS7r_KudxVqqN3wLMcyE-75">
          <mxGeometry width="50" height="50" relative="1" as="geometry">
            <mxPoint x="620" y="-40" as="sourcePoint" />
            <mxPoint x="670" y="-90" as="targetPoint" />
          </mxGeometry>
        </mxCell>
        <mxCell id="eS7r_KudxVqqN3wLMcyE-82" value="" style="endArrow=none;html=1;rounded=0;entryX=0.5;entryY=1;entryDx=0;entryDy=0;" edge="1" parent="1" target="eS7r_KudxVqqN3wLMcyE-80">
          <mxGeometry width="50" height="50" relative="1" as="geometry">
            <mxPoint x="225" y="160" as="sourcePoint" />
            <mxPoint x="275" y="110" as="targetPoint" />
          </mxGeometry>
        </mxCell>
        <mxCell id="eS7r_KudxVqqN3wLMcyE-83" value="N" style="text;html=1;align=center;verticalAlign=middle;resizable=0;points=[];autosize=1;strokeColor=none;fillColor=none;" vertex="1" parent="1">
          <mxGeometry x="385" y="-172" width="30" height="30" as="geometry" />
        </mxCell>
        <mxCell id="eS7r_KudxVqqN3wLMcyE-84" value="1" style="text;html=1;align=center;verticalAlign=middle;resizable=0;points=[];autosize=1;strokeColor=none;fillColor=none;" vertex="1" parent="1">
          <mxGeometry x="465" y="-42" width="30" height="30" as="geometry" />
        </mxCell>
      </root>
    </mxGraphModel>
  </diagram>
</mxfile>
